Coordinates
version=1
nRows=9
nColumns=24
inDegrees=yes

Units are S.I. units (second, meters, Newtons, ...)
Angles are in degrees.

endheader
time	pelvis_tilt	pelvis_list	pelvis_rotation	pelvis_tx	pelvis_ty	pelvis_tz	hip_flexion_r	hip_adduction_r	hip_rotation_r	knee_angle_r	ankle_angle_r	subtalar_angle_r	mtp_angle_r	hip_flexion_l	hip_adduction_l	hip_rotation_l	knee_angle_l	ankle_angle_l	subtalar_angle_l	mtp_angle_l	lumbar_extension	lumbar_bending	lumbar_rotation
      3.96000000	    -11.74326445	      9.03252391	     -3.79343889	     -0.80670402	     -0.03744998	     -0.25171554	     15.59131066	    -14.03926798	     -6.03001361	    -59.89665077	    -29.47506141	    -15.81022991	     22.31509326	     31.09025343	      9.22329750	     -4.79269856	    -24.06945049	     -0.66637283	    -14.20571973	    -10.11257647	      8.61477906	     -9.61252006	      3.91911909
      3.96500000	    -11.65554777	      8.91022434	     -3.72961719	     -0.79936117	     -0.03602206	     -0.25212876	     16.55648685	    -13.86318680	     -5.88418337	    -60.95802037	    -28.43191729	    -16.52683085	     22.36619009	     30.33860950	      9.25057955	     -4.59074189	    -23.80527085	     -0.27282059	    -14.10984829	     -9.93463174	      8.49652865	     -9.48896281	      3.75103744
      3.97000000	    -11.62141946	      8.70857069	     -3.73191607	     -0.79214511	     -0.03459418	     -0.25239944	     17.59131420	    -13.55003911	     -5.66678979	    -61.92897377	    -27.30934667	    -16.97977507	     22.38813419	     29.65882850	      9.14282086	     -4.44945580	    -23.56414252	      0.11060150	    -13.97573947	     -9.72842984	      8.42603637	     -9.26792120	      3.64360893
      3.97500000	    -11.55698212	      8.49263333	     -3.70674936	     -0.78488270	     -0.03310901	     -0.25274136	     18.55069572	    -13.24820395	     -5.54238911	    -62.76806558	    -26.27685131	    -17.37011059	     22.47240393	     28.91960744	      9.05593327	     -4.21454157	    -23.27970314	      0.44597758	    -13.96059921	     -9.59236176	      8.32713670	     -9.03161720	      3.51890318
      3.98000000	    -11.51197944	      8.25639444	     -3.68177146	     -0.77771351	     -0.03164972	     -0.25302607	     19.52182134	    -12.91999822	     -5.42984127	    -63.52729695	    -25.17606214	    -17.48742879	     22.61452695	     28.21672598	      8.93435372	     -4.00303314	    -23.01012165	      0.73310350	    -13.93454424	     -9.47217336	      8.23469655	     -8.77749501	      3.35983489
      3.98500000	    -11.46180668	      8.01958129	     -3.64397512	     -0.77050164	     -0.03019677	     -0.25336313	     20.45623561	    -12.60745963	     -5.36166529	    -64.17603466	    -24.12478243	    -17.47773116	     22.83739367	     27.48577277	      8.83164251	     -3.72073487	    -22.70359908	      1.01078309	    -13.97972361	     -9.39907241	      8.14666046	     -8.51614333	      3.21788407
      3.99000000	    -11.40705475	      7.78006596	     -3.59331541	     -0.76330085	     -0.02873504	     -0.25368445	     21.35775226	    -12.29530664	     -5.31551660	    -64.72136653	    -23.10216694	    -17.31249912	     23.18832563	     26.73531055	      8.73350432	     -3.38296830	    -22.36838816	      1.24875338	    -14.05265631	     -9.39463824	      8.05347867	     -8.25594595	      3.05269553
      3.99500000	    -11.34134315	      7.50015119	     -3.52862600	     -0.75617240	     -0.02726537	     -0.25399920	     22.21533279	    -11.94288540	     -5.31164514	    -65.15987693	    -22.12506045	    -17.05224062	     23.61168302	     25.97942630	      8.59626876	     -3.03803949	    -22.03938812	      1.46097561	    -14.15925120	     -9.44392054	      7.93107181	     -7.95547061	      2.85295363
      4.00000000	    -11.26489100	      7.29853289	     -3.43163446	     -0.74896717	     -0.02585112	     -0.25438689	     23.03940492	    -11.70921051	     -5.32869014	    -65.51628820	    -21.13507156	    -16.62749804	     24.36160804	     25.17641684	      8.56374611	     -2.61425976	    -21.64181873	      1.67473024	    -14.29038102	     -9.63264085	      7.81826814	     -7.74007759	      2.65884268
